<?xml version="1.0" encoding="iso-8859-1"?>
<!-- Generator: Adobe Illustrator 19.0.0, SVG Export Plug-In . SVG Version: 6.00 Build 0)  -->
<svg version="1.1" id="Capa_1" xmlns="http://www.w3.org/2000/svg" xmlns:xlink="http://www.w3.org/1999/xlink" x="0px" y="0px"
	 viewBox="0 0 512 512" style="enable-background:new 0 0 512 512;" xml:space="preserve">
<g>
	<polygon style="fill:#F98C96;" points="132.414,300.138 0,353.103 0,158.897 132.414,211.862 	"/>
	<polygon style="fill:#F98C96;" points="379.586,300.138 512,353.103 512,158.897 379.586,211.862 	"/>
</g>
<g>
	<path style="fill:#DD3E46;" d="M132.414,256c-0.945,0-1.889-0.159-2.79-0.459l-52.966-17.655
		c-4.634-1.545-7.142-6.541-5.597-11.176s6.541-7.142,11.176-5.597l52.966,17.655c4.643,1.492,7.194,6.462,5.703,11.105
		C139.723,253.555,136.28,256.035,132.414,256z"/>
	<path style="fill:#DD3E46;" d="M79.448,291.31c-4.873-0.009-8.819-3.972-8.81-8.845c0.009-3.787,2.428-7.142,6.02-8.351
		l52.966-17.655c4.634-1.545,9.631,0.962,11.176,5.597s-0.962,9.631-5.597,11.176l-52.966,17.655
		C81.337,291.178,80.393,291.319,79.448,291.31z"/>
	<path style="fill:#DD3E46;" d="M432.552,291.31c-0.945,0-1.889-0.159-2.79-0.459l-52.966-17.655
		c-4.634-1.545-7.141-6.541-5.597-11.176c1.545-4.634,6.541-7.142,11.176-5.597l52.966,17.655c4.643,1.492,7.194,6.462,5.703,11.105
		C439.861,288.865,436.418,291.346,432.552,291.31z"/>
	<path style="fill:#DD3E46;" d="M379.586,256c-4.873-0.009-8.819-3.972-8.81-8.845c0.009-3.787,2.428-7.142,6.02-8.351
		l52.966-17.655c4.635-1.545,9.631,0.962,11.176,5.597c1.545,4.634-0.962,9.631-5.597,11.176l-52.966,17.655
		C381.475,255.868,380.531,256.009,379.586,256z"/>
</g>
<path style="fill:#DA1C4B;" d="M185.379,158.897h141.241c29.255,0,52.966,23.711,52.966,52.966v88.276
	c0,29.255-23.711,52.966-52.966,52.966H185.379c-29.255,0-52.966-23.711-52.966-52.966v-88.276
	C132.414,182.607,156.125,158.897,185.379,158.897z"/>
<path style="fill:#F98C96;" d="M256,220.142L256,220.142c-12.544-11.043-31.338-11.043-43.882,0l0,0
	c-11.043,9.649-12.182,26.421-2.534,37.464c0.786,0.9,1.633,1.748,2.534,2.534l0,0L256,300.138l43.882-39.998l0,0
	c11.043-9.649,12.182-26.421,2.534-37.464c-0.786-0.9-1.633-1.748-2.534-2.534l0,0C287.338,209.099,268.544,209.099,256,220.142z"/>
<g>
	<path style="fill:#FDBD40;" d="M388.414,414.897c-14.627,0-26.483-11.855-26.483-26.483c0-4.873-3.955-8.828-8.828-8.828
		c-4.873,0-8.828,3.955-8.828,8.828c0,14.627-11.855,26.483-26.483,26.483c-4.873,0-8.828,3.955-8.828,8.828
		c0,4.873,3.955,8.828,8.828,8.828c14.627,0,26.483,11.855,26.483,26.483c0,4.873,3.955,8.828,8.828,8.828
		c4.873,0,8.828-3.955,8.828-8.828c0-14.627,11.855-26.483,26.483-26.483c4.873,0,8.828-3.955,8.828-8.828
		C397.241,418.851,393.287,414.897,388.414,414.897z M353.103,432.825c-2.569-3.46-5.641-6.532-9.101-9.101
		c3.46-2.569,6.532-5.641,9.101-9.101c2.569,3.46,5.641,6.532,9.101,9.101C358.744,426.293,355.672,429.365,353.103,432.825z"/>
	<path style="fill:#FDBD40;" d="M194.207,79.448c-14.627,0-26.483-11.855-26.483-26.483c0-4.873-3.955-8.828-8.828-8.828
		c-4.873,0-8.828,3.955-8.828,8.828c0,14.627-11.855,26.483-26.483,26.483c-4.873,0-8.828,3.955-8.828,8.828
		c0,4.873,3.955,8.828,8.828,8.828c14.627,0,26.483,11.855,26.483,26.483c0,4.873,3.955,8.828,8.828,8.828
		c4.873,0,8.828-3.955,8.828-8.828c0-14.627,11.855-26.483,26.483-26.483c4.873,0,8.828-3.955,8.828-8.828
		C203.034,83.403,199.08,79.448,194.207,79.448z M158.897,97.377c-2.569-3.46-5.641-6.532-9.101-9.101
		c3.46-2.569,6.532-5.641,9.101-9.101c2.569,3.46,5.641,6.532,9.101,9.101C164.537,90.845,161.465,93.917,158.897,97.377z"/>
</g>
<g>
	<rect x="397.241" y="79.448" style="fill:#ED917E;" width="17.655" height="17.655"/>
	<rect x="397.241" y="114.759" style="fill:#ED917E;" width="17.655" height="17.655"/>
	<rect x="379.586" y="97.103" style="fill:#ED917E;" width="17.655" height="17.655"/>
	<rect x="414.897" y="97.103" style="fill:#ED917E;" width="17.655" height="17.655"/>
	<rect x="97.103" y="379.586" style="fill:#ED917E;" width="17.655" height="17.655"/>
	<rect x="97.103" y="414.897" style="fill:#ED917E;" width="17.655" height="17.655"/>
	<rect x="79.448" y="397.241" style="fill:#ED917E;" width="17.655" height="17.655"/>
	<rect x="114.759" y="397.241" style="fill:#ED917E;" width="17.655" height="17.655"/>
</g>
<g>
</g>
<g>
</g>
<g>
</g>
<g>
</g>
<g>
</g>
<g>
</g>
<g>
</g>
<g>
</g>
<g>
</g>
<g>
</g>
<g>
</g>
<g>
</g>
<g>
</g>
<g>
</g>
<g>
</g>
</svg>
