<?xml version="1.0" encoding="iso-8859-1"?>
<!-- Generator: Adobe Illustrator 19.0.0, SVG Export Plug-In . SVG Version: 6.00 Build 0)  -->
<svg version="1.1" id="Capa_1" xmlns="http://www.w3.org/2000/svg" xmlns:xlink="http://www.w3.org/1999/xlink" x="0px" y="0px"
	 viewBox="0 0 512 512" style="enable-background:new 0 0 512 512;" xml:space="preserve">
<g>
	
		<linearGradient id="SVGID_1_" gradientUnits="userSpaceOnUse" x1="-45.4278" y1="606.7115" x2="18.2822" y2="606.7115" gradientTransform="matrix(8.5333 0 0 -8.5333 369.1331 5433.2671)">
		<stop  offset="0" style="stop-color:#B24592"/>
		<stop  offset="1" style="stop-color:#F15F79"/>
	</linearGradient>
	<path style="fill:url(#SVGID_1_);" d="M508.245,155.051c-2.338-1.579-5.316-1.903-7.936-0.853L382.72,201.216
		c-5.743-27.716-30.148-47.599-58.453-47.616H187.733c-28.305,0.017-52.71,19.9-58.453,47.616L11.691,154.197
		c-2.62-1.05-5.598-0.725-7.936,0.853C1.4,156.638-0.008,159.292,0,162.133v187.733c-0.009,2.842,1.399,5.495,3.755,7.083
		c1.417,0.947,3.081,1.451,4.779,1.451c1.084,0.017,2.159-0.188,3.157-0.597l117.589-47.019
		c5.743,27.716,30.148,47.599,58.453,47.616h136.533c28.305-0.017,52.71-19.9,58.453-47.616l117.589,47.019
		c0.998,0.41,2.074,0.614,3.157,0.597c1.698,0,3.362-0.503,4.779-1.451c2.355-1.587,3.763-4.241,3.755-7.083V162.133
		C512,159.292,510.601,156.638,508.245,155.051z M17.067,174.763L128,219.136v16.469l-39.936-13.312
		c-4.48-1.51-9.327,0.896-10.837,5.376c-1.51,4.48,0.896,9.327,5.376,10.837l0,0L128,253.611v4.779l-45.397,15.104
		c-4.471,1.493-6.886,6.332-5.393,10.795c0.009,0.017,0.009,0.026,0.017,0.043c1.178,3.473,4.437,5.811,8.107,5.803
		c0.905,0.119,1.826,0.119,2.731,0L128,276.395v16.469L17.067,337.237V174.763z M324.267,341.333H187.733
		c-23.561,0-42.667-19.106-42.667-42.667v-85.333c0-23.561,19.106-42.667,42.667-42.667h136.533
		c23.561,0,42.667,19.106,42.667,42.667v85.333C366.933,322.227,347.827,341.333,324.267,341.333z M494.933,337.237L384,292.864
		v-16.469l39.936,13.739c0.905,0.119,1.826,0.119,2.731,0c3.823,0.196,7.313-2.176,8.533-5.803c1.519-4.463-0.87-9.31-5.333-10.82
		c-0.017-0.009-0.026-0.009-0.043-0.017L384,258.389v-4.779l45.397-14.677c4.48-1.51,6.886-6.357,5.376-10.837
		c-1.51-4.48-6.357-6.886-10.837-5.376l0,0L384,235.605v-16.469l110.933-44.373V337.237z"/>
	
		<linearGradient id="SVGID_2_" gradientUnits="userSpaceOnUse" x1="-45.4278" y1="606.5347" x2="18.2822" y2="606.5347" gradientTransform="matrix(8.5333 0 0 -8.5333 369.1331 5433.2671)">
		<stop  offset="0" style="stop-color:#B24592"/>
		<stop  offset="1" style="stop-color:#F15F79"/>
	</linearGradient>
	<path style="fill:url(#SVGID_2_);" d="M256,210.688c-15.275-9.207-34.756-7.441-48.128,4.352
		c-14.14,12.467-15.488,34.039-3.021,48.179c0.947,1.067,1.954,2.082,3.021,3.021L256,310.187l48.128-43.861
		c14.14-12.467,15.488-34.039,3.021-48.179c-0.947-1.067-1.954-2.082-3.021-3.021C290.773,203.307,271.292,201.506,256,210.688z
		 M292.693,253.355L256,287.147l-36.693-33.451c-3.746-3.311-5.922-8.055-5.973-13.056c0.051-4.975,2.227-9.694,5.973-12.971
		c8.875-7.748,22.101-7.748,30.976,0l5.717,5.205l5.717-5.205c8.858-7.782,22.118-7.782,30.976,0
		c3.746,3.277,5.922,7.996,5.973,12.971c-0.051,5.001-2.227,9.745-5.973,13.056V253.355z"/>
	
		<linearGradient id="SVGID_3_" gradientUnits="userSpaceOnUse" x1="-45.4278" y1="587.7109" x2="18.2822" y2="587.7109" gradientTransform="matrix(8.5333 0 0 -8.5333 369.1331 5433.2671)">
		<stop  offset="0" style="stop-color:#B24592"/>
		<stop  offset="1" style="stop-color:#F15F79"/>
	</linearGradient>
	<path style="fill:url(#SVGID_3_);" d="M384,409.6c-14.14,0-25.6-11.46-25.6-25.6c0-4.71-3.823-8.533-8.533-8.533
		s-8.533,3.823-8.533,8.533c0,14.14-11.46,25.6-25.6,25.6c-4.71,0-8.533,3.823-8.533,8.533c0,4.71,3.823,8.533,8.533,8.533
		c14.14,0,25.6,11.46,25.6,25.6c0,4.71,3.823,8.533,8.533,8.533s8.533-3.823,8.533-8.533c0-14.14,11.46-25.6,25.6-25.6
		c4.71,0,8.533-3.823,8.533-8.533C392.533,413.423,388.71,409.6,384,409.6z M349.867,426.667c-2.423-3.234-5.299-6.11-8.533-8.533
		c3.234-2.423,6.11-5.299,8.533-8.533c2.423,3.234,5.299,6.11,8.533,8.533C355.166,420.557,352.29,423.433,349.867,426.667z"/>
	
		<linearGradient id="SVGID_4_" gradientUnits="userSpaceOnUse" x1="-45.4278" y1="625.7109" x2="18.2822" y2="625.7109" gradientTransform="matrix(8.5333 0 0 -8.5333 369.1331 5433.2671)">
		<stop  offset="0" style="stop-color:#B24592"/>
		<stop  offset="1" style="stop-color:#F15F79"/>
	</linearGradient>
	<path style="fill:url(#SVGID_4_);" d="M170.667,59.733c0-4.71-3.823-8.533-8.533-8.533s-8.533,3.823-8.533,8.533
		c0,14.14-11.46,25.6-25.6,25.6c-4.71,0-8.533,3.823-8.533,8.533c0,4.71,3.823,8.533,8.533,8.533c14.14,0,25.6,11.46,25.6,25.6
		c0,4.71,3.823,8.533,8.533,8.533s8.533-3.823,8.533-8.533c0-14.14,11.46-25.6,25.6-25.6c4.71,0,8.533-3.823,8.533-8.533
		c0-4.71-3.823-8.533-8.533-8.533C182.127,85.333,170.667,73.873,170.667,59.733z M162.133,102.4
		c-2.423-3.234-5.299-6.11-8.533-8.533c3.234-2.423,6.11-5.299,8.533-8.533c2.423,3.234,5.299,6.11,8.533,8.533
		C167.433,96.29,164.557,99.166,162.133,102.4z"/>
	
		<linearGradient id="SVGID_5_" gradientUnits="userSpaceOnUse" x1="-45.4278" y1="625.7109" x2="18.2822" y2="625.7109" gradientTransform="matrix(8.5333 0 0 -8.5333 369.1331 5433.2671)">
		<stop  offset="0" style="stop-color:#B24592"/>
		<stop  offset="1" style="stop-color:#F15F79"/>
	</linearGradient>
	<rect x="392.533" y="85.333" style="fill:url(#SVGID_5_);" width="17.067" height="17.067"/>
	
		<linearGradient id="SVGID_6_" gradientUnits="userSpaceOnUse" x1="-45.4278" y1="621.7109" x2="18.2822" y2="621.7109" gradientTransform="matrix(8.5333 0 0 -8.5333 369.1331 5433.2671)">
		<stop  offset="0" style="stop-color:#B24592"/>
		<stop  offset="1" style="stop-color:#F15F79"/>
	</linearGradient>
	<rect x="392.533" y="119.467" style="fill:url(#SVGID_6_);" width="17.067" height="17.067"/>
	
		<linearGradient id="SVGID_7_" gradientUnits="userSpaceOnUse" x1="-45.4278" y1="623.7109" x2="18.2822" y2="623.7109" gradientTransform="matrix(8.5333 0 0 -8.5333 369.1331 5433.2671)">
		<stop  offset="0" style="stop-color:#B24592"/>
		<stop  offset="1" style="stop-color:#F15F79"/>
	</linearGradient>
	<rect x="375.467" y="102.4" style="fill:url(#SVGID_7_);" width="17.067" height="17.067"/>
	
		<linearGradient id="SVGID_8_" gradientUnits="userSpaceOnUse" x1="-45.4278" y1="623.7109" x2="18.2822" y2="623.7109" gradientTransform="matrix(8.5333 0 0 -8.5333 369.1331 5433.2671)">
		<stop  offset="0" style="stop-color:#B24592"/>
		<stop  offset="1" style="stop-color:#F15F79"/>
	</linearGradient>
	<rect x="409.6" y="102.4" style="fill:url(#SVGID_8_);" width="17.067" height="17.067"/>
	
		<linearGradient id="SVGID_9_" gradientUnits="userSpaceOnUse" x1="-45.4278" y1="591.7109" x2="18.2822" y2="591.7109" gradientTransform="matrix(8.5333 0 0 -8.5333 369.1331 5433.2671)">
		<stop  offset="0" style="stop-color:#B24592"/>
		<stop  offset="1" style="stop-color:#F15F79"/>
	</linearGradient>
	<rect x="102.4" y="375.467" style="fill:url(#SVGID_9_);" width="17.067" height="17.067"/>
	
		<linearGradient id="SVGID_10_" gradientUnits="userSpaceOnUse" x1="-45.4278" y1="587.7109" x2="18.2822" y2="587.7109" gradientTransform="matrix(8.5333 0 0 -8.5333 369.1331 5433.2671)">
		<stop  offset="0" style="stop-color:#B24592"/>
		<stop  offset="1" style="stop-color:#F15F79"/>
	</linearGradient>
	<rect x="102.4" y="409.6" style="fill:url(#SVGID_10_);" width="17.067" height="17.067"/>
	
		<linearGradient id="SVGID_11_" gradientUnits="userSpaceOnUse" x1="-45.4278" y1="589.7109" x2="18.2822" y2="589.7109" gradientTransform="matrix(8.5333 0 0 -8.5333 369.1331 5433.2671)">
		<stop  offset="0" style="stop-color:#B24592"/>
		<stop  offset="1" style="stop-color:#F15F79"/>
	</linearGradient>
	<rect x="85.333" y="392.533" style="fill:url(#SVGID_11_);" width="17.067" height="17.067"/>
	
		<linearGradient id="SVGID_12_" gradientUnits="userSpaceOnUse" x1="-45.4278" y1="589.7109" x2="18.2822" y2="589.7109" gradientTransform="matrix(8.5333 0 0 -8.5333 369.1331 5433.2671)">
		<stop  offset="0" style="stop-color:#B24592"/>
		<stop  offset="1" style="stop-color:#F15F79"/>
	</linearGradient>
	<rect x="119.467" y="392.533" style="fill:url(#SVGID_12_);" width="17.067" height="17.067"/>
</g>
<g>
</g>
<g>
</g>
<g>
</g>
<g>
</g>
<g>
</g>
<g>
</g>
<g>
</g>
<g>
</g>
<g>
</g>
<g>
</g>
<g>
</g>
<g>
</g>
<g>
</g>
<g>
</g>
<g>
</g>
</svg>
