<?xml version="1.0" encoding="iso-8859-1"?>
<!-- Generator: Adobe Illustrator 19.0.0, SVG Export Plug-In . SVG Version: 6.00 Build 0)  -->
<svg version="1.1" id="Capa_1" xmlns="http://www.w3.org/2000/svg" xmlns:xlink="http://www.w3.org/1999/xlink" x="0px" y="0px"
	 viewBox="0 0 480 480" style="enable-background:new 0 0 480 480;" xml:space="preserve">
<g>
	<g>
		<path d="M476.48,145.36c-2.195-1.482-4.98-1.781-7.44-0.8L358.8,188.64c-5.383-25.984-28.264-44.623-54.8-44.64H176
			c-26.536,0.017-49.417,18.656-54.8,44.64L10.96,144.56c-2.46-0.981-5.245-0.682-7.44,0.8C1.315,146.85-0.004,149.339,0,152v176
			c-0.004,2.661,1.315,5.15,3.52,6.64c1.324,0.89,2.884,1.364,4.48,1.36c1.014,0.015,2.021-0.176,2.96-0.56l110.24-44.08
			c5.383,25.984,28.264,44.623,54.8,44.64h128c26.536-0.017,49.417-18.656,54.8-44.64l110.24,44.08
			c0.939,0.384,1.946,0.575,2.96,0.56c1.596,0.004,3.156-0.47,4.48-1.36c2.205-1.49,3.524-3.979,3.52-6.64V152
			C480.004,149.339,478.685,146.85,476.48,145.36z M120,220.88L82.56,208.4c-4.197-1.414-8.746,0.843-10.16,5.04
			c-1.414,4.197,0.843,8.746,5.04,10.16L120,237.76v4.48L77.44,256.4c-4.191,1.4-6.453,5.932-5.052,10.123
			c0.004,0.012,0.008,0.025,0.013,0.037c1.101,3.258,4.161,5.449,7.6,5.44c0.85,0.11,1.71,0.11,2.56,0L120,259.12v15.44l-104,41.6
			V163.84l104,41.6V220.88z M344,280c0,22.091-17.909,40-40,40H176c-22.091,0-40-17.909-40-40v-80c0-22.091,17.909-40,40-40h128
			c22.091,0,40,17.909,40,40V280z M464,316.16l-104-41.6v-15.44L397.44,272c0.85,0.11,1.71,0.11,2.56,0
			c3.585,0.187,6.856-2.037,8-5.44c1.421-4.184-0.819-8.727-5.003-10.148c-0.012-0.004-0.025-0.008-0.037-0.013L360,242.24v-4.48
			L402.56,224c4.197-1.414,6.454-5.963,5.04-10.16c-1.414-4.197-5.963-6.454-10.16-5.04L360,220.88v-15.44l104-41.6V316.16z"/>
	</g>
</g>
<g>
	<g>
		<path d="M287.954,204.514c-0.885-1.003-1.831-1.949-2.834-2.834c-12.521-11.083-30.783-12.766-45.12-4.16
			c-14.32-8.628-32.58-6.977-45.12,4.08c-13.255,11.69-14.524,31.911-2.834,45.166c0.885,1.003,1.831,1.949,2.834,2.834L240,290.8
			l45.12-41.12C298.375,237.99,299.644,217.769,287.954,204.514z M274.4,237.84v-0.32L240,269.2l-34.4-31.36
			c-3.515-3.103-5.55-7.551-5.6-12.24c0.052-4.665,2.089-9.088,5.6-12.16c8.318-7.261,20.722-7.261,29.04,0l5.36,4.88l5.36-4.88
			c8.305-7.296,20.735-7.296,29.04,0c3.511,3.072,5.548,7.495,5.6,12.16C279.95,230.289,277.915,234.737,274.4,237.84z"/>
	</g>
</g>
<g>
	<g>
		<path d="M360,384c-13.255,0-24-10.745-24-24c0-4.418-3.582-8-8-8s-8,3.582-8,8c0,13.255-10.745,24-24,24c-4.418,0-8,3.582-8,8
			s3.582,8,8,8c13.255,0,24,10.745,24,24c0,4.418,3.582,8,8,8s8-3.582,8-8c0-13.255,10.745-24,24-24c4.418,0,8-3.582,8-8
			S364.418,384,360,384z M328,400c-2.274-3.032-4.968-5.726-8-8c3.032-2.274,5.726-4.968,8-8c2.274,3.032,4.968,5.726,8,8
			C332.968,394.274,330.274,396.968,328,400z"/>
	</g>
</g>
<g>
	<g>
		<path d="M184,80c-13.255,0-24-10.745-24-24c0-4.418-3.582-8-8-8s-8,3.582-8,8c0,13.255-10.745,24-24,24c-4.418,0-8,3.582-8,8
			s3.582,8,8,8c13.255,0,24,10.745,24,24c0,4.418,3.582,8,8,8s8-3.582,8-8c0-13.255,10.745-24,24-24c4.418,0,8-3.582,8-8
			S188.418,80,184,80z M152,96c-2.274-3.032-4.968-5.726-8-8c3.032-2.274,5.726-4.968,8-8c2.274,3.032,4.968,5.726,8,8
			C156.968,90.274,154.274,92.968,152,96z"/>
	</g>
</g>
<g>
	<g>
		<rect x="368" y="80" width="16" height="16"/>
	</g>
</g>
<g>
	<g>
		<rect x="368" y="112" width="16" height="16"/>
	</g>
</g>
<g>
	<g>
		<rect x="352" y="96" width="16" height="16"/>
	</g>
</g>
<g>
	<g>
		<rect x="384" y="96" width="16" height="16"/>
	</g>
</g>
<g>
	<g>
		<rect x="96" y="352" width="16" height="16"/>
	</g>
</g>
<g>
	<g>
		<rect x="96" y="384" width="16" height="16"/>
	</g>
</g>
<g>
	<g>
		<rect x="80" y="368" width="16" height="16"/>
	</g>
</g>
<g>
	<g>
		<rect x="112" y="368" width="16" height="16"/>
	</g>
</g>
<g>
</g>
<g>
</g>
<g>
</g>
<g>
</g>
<g>
</g>
<g>
</g>
<g>
</g>
<g>
</g>
<g>
</g>
<g>
</g>
<g>
</g>
<g>
</g>
<g>
</g>
<g>
</g>
<g>
</g>
</svg>
